<svg xmlns="http://www.w3.org/2000/svg" style="display: none;">

  <symbol id="dashboard-icon" viewBox="0 0 24 24">
  <path fill="currentColor" d="M13 9V3h8v6zM3 13V3h8v10zm10 8V11h8v10zM3 21v-6h8v6z"/>
  </symbol>

  <symbol id="manufacturing-icon" viewBox="0 0 24 24">
  <path fill="currentColor" d="M3.975 21v-3h3.1l-2.55-8.35q-.675-.375-1.112-1.1T2.975 7q0-1.25.875-2.125T5.975 4q.975 0 1.738.563T8.775 6h3.2V5q0-.425.288-.712T12.975 4q.225 0 .438.1t.362.3l1.7-1.6q.225-.225.538-.288t.612.088l3.9 1.8q.3.15.413.438t-.013.562q-.15.3-.437.388t-.563-.038l-3.6-1.65l-2.35 2.2v1.4l2.35 2.15l3.6-1.65q.275-.125.575-.025t.425.375q.15.3.025.575t-.425.425l-3.9 1.85q-.3.15-.612.087t-.538-.287l-1.7-1.6q-.15.15-.362.275t-.438.125q-.425 0-.712-.287T11.975 9V8h-3.2q-.075.2-.162.375t-.238.375l5 9.25h3.6v3zM6.688 7.712q.287-.287.287-.712t-.287-.712T5.975 6t-.712.288T4.975 7t.288.713t.712.287t.713-.288"/>
  </symbol>

  <symbol id="aspect-radio-icon" viewBox="0 0 24 24">
  <path fill="currentColor" d="M14 17h5v-5h-2v3h-3zm-9-5h2V9h3V7H5zm-1 8q-.825 0-1.412-.587T2 18V6q0-.825.588-1.412T4 4h16q.825 0 1.413.588T22 6v12q0 .825-.587 1.413T20 20z"/>
  </symbol>

  <symbol id="group-icon" viewBox="0 0 24 24">
  <path fill="currentColor" d="M9 13.75c-2.34 0-7 1.17-7 3.5V19h14v-1.75c0-2.33-4.66-3.5-7-3.5M4.34 17c.84-.58 2.87-1.25 4.66-1.25s3.82.67 4.66 1.25zM9 12c1.93 0 3.5-1.57 3.5-3.5S10.93 5 9 5S5.5 6.57 5.5 8.5S7.07 12 9 12m0-5c.83 0 1.5.67 1.5 1.5S9.83 10 9 10s-1.5-.67-1.5-1.5S8.17 7 9 7m7.04 6.81c1.16.84 1.96 1.96 1.96 3.44V19h4v-1.75c0-2.02-3.5-3.17-5.96-3.44M15 12c1.93 0 3.5-1.57 3.5-3.5S16.93 5 15 5c-.54 0-1.04.13-1.5.35c.63.89 1 1.98 1 3.15s-.37 2.26-1 3.15c.46.22.96.35 1.5.35"/>
  </symbol>

  <symbol id="leaderdboard-icon" viewBox="0 0 24 24">
  <path fill="currentColor" d="M4 19h4v-8H4zm6 0h4V5h-4zm6 0h4v-6h-4zM2 21V9h6V3h8v8h6v10z"/>
  </symbol>
  
  <symbol id="add-icon" viewBox="0 0 24 24">
  <path fill="currentColor" d="M19 13h-6v6h-2v-6H5v-2h6V5h2v6h6z"/>
  </symbol>

  <symbol id="help-icon" viewBox="0 0 24 24">
  <path fill="currentColor" d="M12.838 17.638q.362-.363.362-.888t-.362-.888t-.888-.362t-.887.363t-.363.887t.363.888t.887.362t.888-.363M11.05 14.15h1.85q0-.825.188-1.3t1.062-1.3q.65-.65 1.025-1.238T15.55 8.9q0-1.4-1.025-2.15T12.1 6q-1.425 0-2.312.75T8.55 8.55l1.65.65q.125-.45.563-.975T12.1 7.7q.8 0 1.2.438t.4.962q0 .5-.3.938t-.75.812q-1.1.975-1.35 1.475t-.25 1.825M12 22q-2.075 0-3.9-.787t-3.175-2.138T2.788 15.9T2 12t.788-3.9t2.137-3.175T8.1 2.788T12 2t3.9.788t3.175 2.137T21.213 8.1T22 12t-.788 3.9t-2.137 3.175t-3.175 2.138T12 22m0-2q3.35 0 5.675-2.325T20 12t-2.325-5.675T12 4T6.325 6.325T4 12t2.325 5.675T12 20m0-8"/>
  </symbol>

  <symbol id="setting-icon" viewBox="0 0 16 16">
  <g fill="none" stroke="currentColor"><path d="m13.258 8.354l.904.805a.91.91 0 0 1 .196 1.169l-1.09 1.862a.94.94 0 0 1-.35.341a1 1 0 0 1-.478.125a1 1 0 0 1-.306-.046l-1.157-.382q-.304.195-.632.349l-.243 1.173a.93.93 0 0 1-.339.544a.97.97 0 0 1-.618.206H6.888a.97.97 0 0 1-.618-.206a.93.93 0 0 1-.338-.544l-.244-1.173a6 6 0 0 1-.627-.35L3.9 12.61a1 1 0 0 1-.306.046a1 1 0 0 1-.477-.125a.94.94 0 0 1-.35-.34l-1.129-1.863a.91.91 0 0 1 .196-1.187L2.737 8v-.354l-.904-.805a.91.91 0 0 1-.196-1.169L2.766 3.81a.94.94 0 0 1 .35-.341a1 1 0 0 1 .477-.125a1 1 0 0 1 .306.028l1.138.4q.305-.195.632-.349l.244-1.173a.93.93 0 0 1 .338-.544a.97.97 0 0 1 .618-.206h2.238a.97.97 0 0 1 .618.206c.175.137.295.33.338.544l.244 1.173q.325.155.627.35l1.162-.382a.98.98 0 0 1 .784.078c.145.082.265.2.35.34l1.128 1.863a.91.91 0 0 1-.182 1.187l-.918.782z"/><path d="M10.5 8a2.5 2.5 0 1 1-5 0a2.5 2.5 0 0 1 5 0Z"/></g>
  </symbol>

  <symbol id="location-icon" viewBox="0 0 24 24">
  <g fill="currentColor" fill-rule="evenodd" clip-rule="evenodd"><path d="M7.25 10a4.75 4.75 0 1 1 9.5 0a4.75 4.75 0 0 1-9.5 0M12 6.75a3.25 3.25 0 1 0 0 6.5a3.25 3.25 0 0 0 0-6.5"/><path d="M3.524 8.857a8.29 8.29 0 0 1 8.26-7.607h.432a8.29 8.29 0 0 1 8.26 7.607a8.94 8.94 0 0 1-1.99 6.396l-4.793 5.861a2.187 2.187 0 0 1-3.386 0l-4.793-5.861a8.94 8.94 0 0 1-1.99-6.396m8.26-6.107A6.79 6.79 0 0 0 5.02 8.98a7.44 7.44 0 0 0 1.656 5.323l4.793 5.862a.687.687 0 0 0 1.064 0l4.793-5.862A7.44 7.44 0 0 0 18.98 8.98a6.79 6.79 0 0 0-6.765-6.23z"/></g>
  </symbol>

  <symbol id="notification-icon" viewBox="0 0 24 24">
  <path fill="currentColor" fill-rule="evenodd" d="M13 3a1 1 0 1 0-2 0v.75h-.557A4.214 4.214 0 0 0 6.237 7.7l-.221 3.534a7.4 7.4 0 0 1-1.308 3.754a1.617 1.617 0 0 0 1.135 2.529l3.407.408V19a2.75 2.75 0 1 0 5.5 0v-1.075l3.407-.409a1.617 1.617 0 0 0 1.135-2.528a7.4 7.4 0 0 1-1.308-3.754l-.221-3.533a4.214 4.214 0 0 0-4.206-3.951H13zm-2.557 2.25a2.714 2.714 0 0 0-2.709 2.544l-.22 3.534a8.9 8.9 0 0 1-1.574 4.516a.117.117 0 0 0 .082.183l3.737.449c1.489.178 2.993.178 4.482 0l3.737-.449a.117.117 0 0 0 .082-.183a8.9 8.9 0 0 1-1.573-4.516l-.221-3.534a2.714 2.714 0 0 0-2.709-2.544zm1.557 15c-.69 0-1.25-.56-1.25-1.25v-.75h2.5V19c0 .69-.56 1.25-1.25 1.25" clip-rule="evenodd"/>
  </symbol>

  <symbol id="face-icon" viewBox="0 0 24 24">
  <path fill="currentColor" d="M8.113 13.888Q7.75 13.525 7.75 13t.363-.888T9 11.75t.888.363t.362.887t-.363.888T9 14.25t-.888-.363m6 0q-.362-.362-.362-.887t.363-.888t.887-.362t.888.363t.362.887t-.363.888t-.887.362t-.888-.363M12 20q3.35 0 5.675-2.325T20 12q0-.6-.075-1.162T19.65 9.75q-.525.125-1.05.188T17.5 10q-2.275 0-4.3-.975T9.75 6.3q-.8 1.95-2.287 3.388T4 11.85V12q0 3.35 2.325 5.675T12 20m0 2q-2.075 0-3.9-.787t-3.175-2.138T2.788 15.9T2 12t.788-3.9t2.137-3.175T8.1 2.788T12 2t3.9.788t3.175 2.137T21.213 8.1T22 12t-.788 3.9t-2.137 3.175t-3.175 2.138T12 22"/>
  </symbol>

  <symbol id="qr-icon" viewBox="0 0 24 24">
  <path fill="currentColor" d="M2 7V2h5v2H4v3zm0 15v-5h2v3h3v2zm15 0v-2h3v-3h2v5zm3-15V4h-3V2h5v5zm-2.5 10.5H19V19h-1.5zm0-3H19V16h-1.5zM16 16h1.5v1.5H16zm-1.5 1.5H16V19h-1.5zM13 16h1.5v1.5H13zm3-3h1.5v1.5H16zm-1.5 1.5H16V16h-1.5zM13 13h1.5v1.5H13zm6-8v6h-6V5zm-8 8v6H5v-6zm0-8v6H5V5zM9.5 17.5v-3h-3v3zm0-8v-3h-3v3zm8 0v-3h-3v3z"/></symbol>

  <symbol id="history-icon" viewBox="0 0 1024 1024">
  <path fill="currentColor" d="M536.1 273H488c-4.4 0-8 3.6-8 8v275.3c0 2.6 1.2 5 3.3 6.5l165.3 120.7c3.6 2.6 8.6 1.9 11.2-1.7l28.6-39c2.7-3.7 1.9-8.7-1.7-11.2L544.1 528.5V281c0-4.4-3.6-8-8-8m219.8 75.2l156.8 38.3c5 1.2 9.9-2.6 9.9-7.7l.8-161.5c0-6.7-7.7-10.5-12.9-6.3L752.9 334.1a8 8 0 0 0 3 14.1m167.7 301.1l-56.7-19.5a8 8 0 0 0-10.1 4.8c-1.9 5.1-3.9 10.1-6 15.1c-17.8 42.1-43.3 80-75.9 112.5a353 353 0 0 1-112.5 75.9a352.2 352.2 0 0 1-137.7 27.8c-47.8 0-94.1-9.3-137.7-27.8a353 353 0 0 1-112.5-75.9c-32.5-32.5-58-70.4-75.9-112.5A353.4 353.4 0 0 1 171 512c0-47.8 9.3-94.2 27.8-137.8c17.8-42.1 43.3-80 75.9-112.5a353 353 0 0 1 112.5-75.9C430.6 167.3 477 158 524.8 158s94.1 9.3 137.7 27.8A353 353 0 0 1 775 261.7c10.2 10.3 19.8 21 28.6 32.3l59.8-46.8C784.7 146.6 662.2 81.9 524.6 82C285 82.1 92.6 276.7 95 516.4C97.4 751.9 288.9 942 524.8 942c185.5 0 343.5-117.6 403.7-282.3c1.5-4.2-.7-8.9-4.9-10.4"/>
  </symbol>

  <symbol id="search-icon" viewBox="0 0 24 24">
  <path fill="none" stroke="currentColor" stroke-linecap="round" stroke-linejoin="round" stroke-width="1.5" d="M19 11.5a7.5 7.5 0 1 1-15 0a7.5 7.5 0 0 1 15 0m-2.107 5.42l3.08 3.08"/>
  </symbol>

  <symbol id="camera-icon" viewBox="0 0 24 24">
  <path fill="currentColor" d="M20 4h-3.17L15 2H9L7.17 4H4a2 2 0 0 0-2 2v12a2 2 0 0 0 2 2h16a2 2 0 0 0 2-2V6a2 2 0 0 0-2-2m0 14H4V6h4.05l1.83-2h4.24l1.83 2H20zM12 7a5 5 0 0 0-5 5a5 5 0 0 0 5 5a5 5 0 0 0 5-5a5 5 0 0 0-5-5m0 8a3 3 0 0 1-3-3a3 3 0 0 1 3-3a3 3 0 0 1 3 3a3 3 0 0 1-3 3"/>
  </symbol>

  <symbol id="check-icon" viewBox="0 0 24 24"><g fill="none" fill-rule="evenodd"><path d="m12.593 23.258l-.011.002l-.071.035l-.02.004l-.014-.004l-.071-.035q-.016-.005-.024.005l-.004.01l-.017.428l.005.02l.01.013l.104.074l.015.004l.012-.004l.104-.074l.012-.016l.004-.017l-.017-.427q-.004-.016-.017-.018m.265-.113l-.013.002l-.185.093l-.01.01l-.003.011l.018.43l.005.012l.008.007l.201.093q.019.005.029-.008l.004-.014l-.034-.614q-.005-.018-.02-.022m-.715.002a.02.02 0 0 0-.027.006l-.006.014l-.034.614q.001.018.017.024l.015-.002l.201-.093l.01-.008l.004-.011l.017-.43l-.003-.012l-.01-.01z"/><path fill="currentColor" d="M21.546 5.111a1.5 1.5 0 0 1 0 2.121L10.303 18.475a1.6 1.6 0 0 1-2.263 0L2.454 12.89a1.5 1.5 0 1 1 2.121-2.121l4.596 4.596L19.424 5.111a1.5 1.5 0 0 1 2.122 0"/></g>
  </symbol>

  <symbol id="person-icon" viewBox="0 0 24 24"><path fill="currentColor" d="M9.175 10.825Q8 9.65 8 8t1.175-2.825T12 4t2.825 1.175T16 8t-1.175 2.825T12 12t-2.825-1.175M4 20v-2.8q0-.85.438-1.562T5.6 14.55q1.55-.775 3.15-1.162T12 13t3.25.388t3.15 1.162q.725.375 1.163 1.088T20 17.2V20zm2-2h12v-.8q0-.275-.137-.5t-.363-.35q-1.35-.675-2.725-1.012T12 15t-2.775.338T6.5 16.35q-.225.125-.363.35T6 17.2zm7.413-8.587Q14 8.825 14 8t-.587-1.412T12 6t-1.412.588T10 8t.588 1.413T12 10t1.413-.587M12 18"/>
  </symbol>

  <symbol id="x-icon" viewBox="0 0 24 24">
  <path fill="none" stroke="currentColor" stroke-linecap="round" stroke-linejoin="round" stroke-width="2" d="M18 6L6 18M6 6l12 12"/>
  </symbol>

  <symbol id="trash-icon" viewBox="0 0 24 24">
  <path fill="currentColor" d="M19 4h-3.5l-1-1h-5l-1 1H5v2h14M6 19a2 2 0 0 0 2 2h8a2 2 0 0 0 2-2V7H6z"/>
  </symbol>

  <symbol id="edit-icon" viewBox="0 0 24 24">
  <path fill="currentColor" d="M3 17.46v3.04c0 .28.22.5.5.5h3.04c.13 0 .26-.05.35-.15L17.81 9.94l-3.75-3.75L3.15 17.1q-.15.15-.15.36M20.71 7.04a.996.996 0 0 0 0-1.41l-2.34-2.34a.996.996 0 0 0-1.41 0l-1.83 1.83l3.75 3.75z"/>
  </symbol>
</svg>

